# xmcd
#
# Track frame offsets:
#	150
#	8719
#	21646
#	38713
#	54990
#	68341
#	84677
#	98299
#	114415
#	129968
#	147077
#	161941
#	178990
#	196114
#	210410
#
# Disc length: 3034 seconds
#
# Revision: 1
# Processed by: cddbd v1.5.1PL0 Copyright (c) Steve Scherf et al.
# Submitted via: EasyCDDAExtractor 7.1.0.1
#
DISCID=bd0bd80f
DTITLE=Los Chalchaleros - La Nochera
DYEAR=1999
DGENRE=Folklore
TTITLE0=Chakai Manta
TTITLE1=Los 60 granaderos
TTITLE2=Angelica
TTITLE3=Luna tucumana
TTITLE4=La cerrillana
TTITLE5=La nochera
TTITLE6=Al jardin de la republica
TTITLE7=A que volver
TTITLE8=Engañera
TTITLE9=Yo vendo unos ojos negros
TTITLE10=Llorare
TTITLE11=Paisaje de Catamarca
TTITLE12=Guitarrero
TTITLE13=Tu que puedes vuelvete
TTITLE14=Debajo de la morera
EXTD=
EXTT0=
EXTT1=
EXTT2=
EXTT3=
EXTT4=
EXTT5=
EXTT6=
EXTT7=
EXTT8=
EXTT9=
EXTT10=
EXTT11=
EXTT12=
EXTT13=
EXTT14=
PLAYORDER=
